# 3ds Max Wavefront OBJ Exporter v0.97b - (c)2007 guruware
# File Created: 11.07.2018 08:36:31
# Created by Neil Brewis.

#
# object metal_post_arm
#

v  1.5080 0.0000 1.2653
v  0.3418 0.0000 1.9386
v  -0.3418 0.0000 1.9386
v  -0.9843 0.0000 1.7048
v  -1.8498 0.0000 0.6733
v  -1.8498 0.0000 -0.6733
v  -0.9843 0.0000 -1.7048
v  0.3418 0.0000 -1.9386
v  1.5080 0.0000 -1.2653
v  1.9685 0.0000 -0.0000
v  1.5080 20.1564 -1.2653
v  1.9685 20.1564 0.0000
v  0.3418 20.1564 -1.9386
v  -0.9843 20.1564 -1.7048
v  -1.8498 20.1564 -0.6733
v  -1.8498 20.1564 0.6733
v  -0.9843 20.1564 1.7048
v  -0.3418 20.1564 1.9386
v  0.3418 20.1564 1.9386
v  1.5080 20.1564 1.2653
v  2.3389 20.1564 0.0000
v  1.7917 20.1564 -1.5034
v  1.7917 21.1360 -1.5034
v  2.3389 21.1360 0.0000
v  0.4061 20.1564 -2.3034
v  0.4061 21.1360 -2.3034
v  -1.1695 20.1564 -2.0256
v  -1.1695 21.1360 -2.0256
v  -2.1979 20.1564 -0.7999
v  -2.1979 21.1360 -0.8000
v  -2.1979 20.1564 0.8000
v  -2.1979 21.1360 0.7999
v  -1.1967 20.1564 2.0082
v  -1.1967 21.1360 2.0082
v  -0.4062 20.1564 2.3034
v  -0.4062 21.1360 2.3034
v  0.4377 20.1564 2.2964
v  0.4377 21.1360 2.2964
v  1.7917 20.1564 1.5034
v  1.7917 21.1360 1.5034
v  1.9685 21.1360 0.0000
v  1.5080 21.1360 -1.2653
v  1.5080 25.8435 -1.2653
v  1.9685 25.8435 0.0000
v  0.3418 21.1360 -1.9386
v  0.3418 25.8435 -1.9386
v  -0.9843 21.1360 -1.7048
v  -0.9843 25.8435 -1.7048
v  -1.8498 21.1360 -0.6733
v  -1.8498 25.8435 -0.6733
v  -1.8498 21.1360 0.6733
v  -1.8498 25.8435 0.6733
v  -0.9843 21.1360 1.7048
v  -0.9843 25.8435 1.7048
v  -0.3418 21.1360 1.9386
v  -0.3418 25.8435 1.9386
v  0.3418 21.1360 1.9386
v  1.5080 21.1360 1.2653
v  1.5080 25.8435 1.2653
v  0.3418 25.8435 1.9386
v  2.3389 30.5509 0.0000
v  1.7917 30.5509 -1.5034
v  1.7917 31.4711 -1.5034
v  2.3389 31.4711 -0.0000
v  0.4061 30.5509 -2.3034
v  0.4062 31.4711 -2.3034
v  -1.1695 30.5509 -2.0256
v  -1.1694 31.4711 -2.0256
v  -2.1979 30.5509 -0.8000
v  -2.1979 31.4711 -0.8000
v  -2.1979 30.5509 0.8000
v  -2.1979 31.4711 0.8000
v  -1.1967 30.5509 2.0082
v  -1.1967 31.4711 2.0082
v  -0.4062 30.5509 2.3034
v  -0.4062 31.4711 2.3034
v  0.4377 30.5509 2.2964
v  0.4377 31.4711 2.2964
v  1.7917 30.5509 1.5034
v  1.7917 31.4711 1.5034
v  1.9685 31.4711 0.0000
v  1.5080 31.4711 -1.2653
v  1.5080 32.7697 -1.2653
v  1.9685 32.7697 0.0000
v  0.3418 31.4711 -1.9386
v  0.3418 32.7697 -1.9386
v  -0.9843 31.4711 -1.7048
v  -0.9843 32.7697 -1.7048
v  -1.8498 31.4711 -0.6733
v  -1.8498 32.7697 -0.6733
v  -1.8498 31.4711 0.6733
v  -1.8498 32.7697 0.6733
v  -0.9843 31.4711 1.7048
v  -0.9843 32.7697 1.7048
v  -0.3418 31.4711 1.9386
v  -0.3418 32.7697 1.9386
v  0.3418 31.4711 1.9386
v  0.3418 32.7697 1.9386
v  1.5080 31.4711 1.2653
v  1.5080 32.7697 1.2653
v  1.5080 30.5509 -1.2653
v  1.9685 30.5509 0.0000
v  0.3418 30.5509 -1.9386
v  -0.9843 30.5509 -1.7048
v  -1.8498 30.5509 -0.6733
v  -1.8498 30.5509 0.6733
v  -0.9843 30.5509 1.7048
v  -0.3418 30.5509 1.9386
v  1.5080 30.5509 1.2653
v  0.3418 30.5509 1.9386
# 110 vertices

vn 0.5901 -0.6376 0.4952
vn 0.1960 -0.6532 0.7314
vn -0.1289 -0.6700 0.7311
vn -0.4343 -0.6532 0.6202
vn -0.7239 -0.6376 0.2635
vn -0.7239 -0.6376 -0.2635
vn -0.3852 -0.6376 -0.6671
vn 0.1338 -0.6376 -0.7587
vn 0.5901 -0.6376 -0.4952
vn 0.7704 -0.6376 0.0000
vn 0.4670 -0.7927 -0.3918
vn 0.6095 -0.7928 0.0000
vn 0.1058 -0.7928 -0.6003
vn -0.3048 -0.7927 -0.5279
vn -0.5727 -0.7928 -0.2084
vn -0.5728 -0.7928 0.2085
vn -0.3658 -0.7703 0.5224
vn -0.1152 -0.7484 0.6532
vn 0.1651 -0.7703 0.6160
vn 0.4669 -0.7928 0.3918
vn 0.5901 0.6376 -0.4952
vn 0.7704 0.6376 0.0000
vn 0.1338 0.6376 -0.7587
vn -0.3852 0.6376 -0.6671
vn -0.7239 0.6376 -0.2635
vn -0.7243 -0.6382 0.2611
vn -0.7243 0.6382 0.2610
vn -0.4387 -0.6534 0.6169
vn -0.4387 0.6534 0.6169
vn -0.1292 -0.6684 0.7325
vn -0.1292 0.6684 0.7325
vn 0.2012 -0.6534 0.7298
vn 0.2012 0.6534 0.7298
vn 0.5913 -0.6382 0.4931
vn 0.5913 0.6382 0.4931
vn 0.6095 0.7928 0.0000
vn 0.4669 0.7928 -0.3918
vn 0.7660 0.0000 -0.6428
vn 1.0000 0.0000 0.0000
vn 0.1058 0.7928 -0.6003
vn 0.1737 -0.0000 -0.9848
vn -0.3048 0.7928 -0.5279
vn -0.5000 -0.0000 -0.8660
vn -0.5728 0.7928 -0.2085
vn -0.9397 0.0000 -0.3420
vn -0.5727 0.7928 0.2084
vn -0.9397 0.0000 0.3420
vn -0.3657 0.7703 0.5223
vn -0.5736 0.0000 0.8192
vn -0.1152 0.7484 0.6532
vn -0.1736 0.0000 0.9848
vn 0.1651 0.7703 0.6160
vn 0.4669 0.7928 0.3918
vn 0.7660 -0.0000 0.6428
vn 0.2588 0.0000 0.9659
vn 0.5901 -0.6377 -0.4951
vn 0.7704 0.6376 -0.0000
vn 0.1337 -0.6377 -0.7586
vn 0.1338 0.6376 -0.7586
vn -0.7243 -0.6381 0.2611
vn -0.7243 0.6382 0.2611
vn -0.4386 -0.6535 0.6169
vn 0.5913 0.6382 0.4930
vn 0.4670 0.7927 -0.3918
vn 0.1058 0.7927 -0.6003
vn 0.1338 0.6377 -0.7586
vn -0.3048 0.7928 -0.5278
vn -0.3852 0.6376 -0.6672
vn -0.5728 0.7928 0.2085
vn -0.7239 0.6377 0.2634
vn -0.3658 0.7703 0.5224
vn -0.4343 0.6532 0.6202
vn -0.1289 0.6700 0.7311
vn 0.1960 0.6532 0.7314
vn 0.5901 0.6377 0.4951
vn 0.6096 -0.7927 -0.0000
vn 0.1059 -0.7928 -0.6002
vn -0.3048 -0.7928 -0.5278
vn -0.5728 -0.7928 -0.2085
vn 0.4669 -0.7928 0.3917
vn 0.1650 -0.7703 0.6160
# 81 vertex normals

vt 0.4792 0.9304 0.0000
vt 0.4612 0.9201 0.0000
vt 0.4506 0.9201 0.0000
vt 0.4406 0.9237 0.0000
vt 0.4272 0.9394 0.0000
vt 0.4272 0.9600 0.0000
vt 0.4406 0.9757 0.0000
vt 0.4612 0.9793 0.0000
vt 0.4792 0.9690 0.0000
vt 0.4864 0.9497 0.0000
vt 0.3816 0.0000 -0.0481
vt 0.3962 0.0000 -0.0449
vt 0.3962 0.8705 -0.0449
vt 0.3816 0.8705 -0.0481
vt 0.2644 0.0001 -0.0449
vt 0.2790 0.0001 -0.0262
vt 0.2790 0.8705 -0.0262
vt 0.2644 0.8705 -0.0449
vt 0.2936 0.0001 0.0129
vt 0.2936 0.8705 0.0129
vt 0.3082 0.0001 0.0481
vt 0.3082 0.8705 0.0481
vt 0.3229 0.0001 0.0481
vt 0.3229 0.8705 0.0481
vt 0.3375 0.0001 0.0129
vt 0.3375 0.8705 0.0129
vt 0.3449 0.0001 -0.0083
vt 0.3449 0.8705 -0.0083
vt 0.3523 0.0001 -0.0262
vt 0.3523 0.8705 -0.0262
vt 0.3670 0.0000 -0.0449
vt 0.3670 0.8705 -0.0449
vt 0.5236 0.7941 -0.0111
vt 0.5348 0.7941 -0.0108
vt 0.5348 0.8009 -0.0108
vt 0.5236 0.8009 -0.0111
vt 0.4335 0.7941 -0.0108
vt 0.4448 0.7941 -0.0070
vt 0.4448 0.8009 -0.0070
vt 0.4335 0.8009 -0.0108
vt 0.4560 0.7941 0.0023
vt 0.4560 0.8009 0.0023
vt 0.4672 0.7941 0.0111
vt 0.4672 0.8009 0.0111
vt 0.4785 0.7941 0.0111
vt 0.4785 0.8009 0.0111
vt 0.4895 0.7941 0.0023
vt 0.4895 0.8009 0.0023
vt 0.4954 0.7941 -0.0028
vt 0.4954 0.8009 -0.0028
vt 0.5013 0.7941 -0.0073
vt 0.5013 0.8009 -0.0073
vt 0.5124 0.7941 -0.0108
vt 0.5124 0.8009 -0.0108
vt 0.3837 0.8752 -0.0201
vt 0.3985 0.8752 -0.0188
vt 0.3985 0.9272 -0.0188
vt 0.3837 0.9272 -0.0201
vt 0.2645 0.8752 -0.0188
vt 0.2794 0.8752 -0.0110
vt 0.2794 0.9272 -0.0110
vt 0.2645 0.9272 -0.0188
vt 0.2942 0.8752 0.0054
vt 0.2942 0.9272 0.0054
vt 0.3091 0.8752 0.0201
vt 0.3091 0.9272 0.0201
vt 0.3240 0.8752 0.0201
vt 0.3240 0.9272 0.0201
vt 0.3388 0.8752 0.0054
vt 0.3388 0.9272 0.0054
vt 0.3464 0.8752 -0.0035
vt 0.3464 0.9272 -0.0035
vt 0.3539 0.8752 -0.0110
vt 0.3688 0.8752 -0.0188
vt 0.3688 0.9272 -0.0188
vt 0.3539 0.9272 -0.0110
vt 0.5236 0.8030 -0.0111
vt 0.5348 0.8030 -0.0108
vt 0.5348 0.8094 -0.0108
vt 0.5236 0.8094 -0.0111
vt 0.4335 0.8029 -0.0108
vt 0.4447 0.8029 -0.0070
vt 0.4447 0.8094 -0.0070
vt 0.4335 0.8094 -0.0108
vt 0.4560 0.8029 0.0023
vt 0.4560 0.8094 0.0023
vt 0.4672 0.8029 0.0111
vt 0.4672 0.8094 0.0111
vt 0.4784 0.8029 0.0111
vt 0.4784 0.8094 0.0111
vt 0.4895 0.8029 0.0023
vt 0.4895 0.8094 0.0023
vt 0.4954 0.8030 -0.0028
vt 0.4954 0.8094 -0.0028
vt 0.5013 0.8030 -0.0073
vt 0.5013 0.8094 -0.0073
vt 0.5123 0.8030 -0.0108
vt 0.5123 0.8094 -0.0108
vt 0.3837 0.9811 -0.0111
vt 0.3985 0.9811 -0.0104
vt 0.3985 0.9955 -0.0104
vt 0.3837 0.9955 -0.0111
vt 0.2645 0.9811 -0.0104
vt 0.2794 0.9811 -0.0061
vt 0.2794 0.9955 -0.0061
vt 0.2645 0.9955 -0.0104
vt 0.2942 0.9811 0.0030
vt 0.2942 0.9955 0.0030
vt 0.3091 0.9811 0.0111
vt 0.3091 0.9955 0.0111
vt 0.3240 0.9811 0.0111
vt 0.3240 0.9955 0.0111
vt 0.3388 0.9811 0.0030
vt 0.3388 0.9955 0.0030
vt 0.3464 0.9811 -0.0019
vt 0.3464 0.9955 -0.0019
vt 0.3539 0.9811 -0.0061
vt 0.3539 0.9955 -0.0061
vt 0.3688 0.9811 -0.0104
vt 0.3688 0.9955 -0.0104
vt 0.3985 0.9791 -0.0188
vt 0.3837 0.9791 -0.0201
vt 0.2794 0.9791 -0.0110
vt 0.2645 0.9791 -0.0188
vt 0.2942 0.9791 0.0054
vt 0.3091 0.9791 0.0201
vt 0.3240 0.9791 0.0201
vt 0.3388 0.9791 0.0054
vt 0.3464 0.9791 -0.0035
vt 0.3688 0.9791 -0.0188
vt 0.3539 0.9791 -0.0110
vt 0.4901 0.9492 0.0000
vt 0.4820 0.9711 0.0000
vt 0.4870 0.9753 0.0000
vt 0.4966 0.9492 0.0000
vt 0.4615 0.9828 0.0000
vt 0.4626 0.9891 0.0000
vt 0.4381 0.9788 0.0000
vt 0.4349 0.9843 0.0000
vt 0.4229 0.9609 0.0000
vt 0.4168 0.9631 0.0000
vt 0.4229 0.9375 0.0000
vt 0.4168 0.9353 0.0000
vt 0.4381 0.9197 0.0000
vt 0.4344 0.9144 0.0000
vt 0.4494 0.9156 0.0000
vt 0.4483 0.9093 0.0000
vt 0.4615 0.9156 0.0000
vt 0.4632 0.9094 0.0000
vt 0.4820 0.9273 0.0000
vt 0.4870 0.9232 0.0000
# 151 texture coords

o metal_post_arm
g metal_post_arm
f 1/1/1 2/2/2 3/3/3 4/4/4 5/5/5 6/6/6 7/7/7 8/8/8 9/9/9 10/10/10
f 10/11/10 9/12/9 11/13/11 12/14/12
f 9/15/9 8/16/8 13/17/13 11/18/11
f 8/16/8 7/19/7 14/20/14 13/17/13
f 7/19/7 6/21/6 15/22/15 14/20/14
f 6/21/6 5/23/5 16/24/16 15/22/15
f 5/23/5 4/25/4 17/26/17 16/24/16
f 4/25/4 3/27/3 18/28/18 17/26/17
f 3/27/3 2/29/2 19/30/19 18/28/18
f 2/29/2 1/31/1 20/32/20 19/30/19
f 1/31/1 10/11/10 12/14/12 20/32/20
f 21/33/10 22/34/9 23/35/21 24/36/22
f 22/37/9 25/38/8 26/39/23 23/40/21
f 25/38/8 27/41/7 28/42/24 26/39/23
f 27/41/7 29/43/6 30/44/25 28/42/24
f 29/43/6 31/45/26 32/46/27 30/44/25
f 31/45/26 33/47/28 34/48/29 32/46/27
f 33/47/28 35/49/30 36/50/31 34/48/29
f 35/49/30 37/51/32 38/52/33 36/50/31
f 37/51/32 39/53/34 40/54/35 38/52/33
f 39/53/34 21/33/10 24/36/22 40/54/35
f 41/55/36 42/56/37 43/57/38 44/58/39
f 42/59/37 45/60/40 46/61/41 43/62/38
f 45/60/40 47/63/42 48/64/43 46/61/41
f 47/63/42 49/65/44 50/66/45 48/64/43
f 49/65/44 51/67/46 52/68/47 50/66/45
f 51/67/46 53/69/48 54/70/49 52/68/47
f 53/69/48 55/71/50 56/72/51 54/70/49
f 57/73/52 58/74/53 59/75/54 60/76/55
f 58/74/53 41/55/36 44/58/39 59/75/54
f 61/77/10 62/78/56 63/79/21 64/80/57
f 62/81/56 65/82/58 66/83/59 63/84/21
f 65/82/58 67/85/7 68/86/24 66/83/59
f 67/85/7 69/87/6 70/88/25 68/86/24
f 69/87/6 71/89/60 72/90/61 70/88/25
f 71/89/60 73/91/62 74/92/29 72/90/61
f 73/91/62 75/93/30 76/94/31 74/92/29
f 75/93/30 77/95/32 78/96/33 76/94/31
f 77/95/32 79/97/34 80/98/63 78/96/33
f 79/97/34 61/77/10 64/80/57 80/98/63
f 81/99/36 82/100/64 83/101/21 84/102/22
f 82/103/64 85/104/65 86/105/66 83/106/21
f 85/104/65 87/107/67 88/108/68 86/105/66
f 87/107/67 89/109/44 90/110/25 88/108/68
f 89/109/44 91/111/69 92/112/70 90/110/25
f 91/111/69 93/113/71 94/114/72 92/112/70
f 93/113/71 95/115/50 96/116/73 94/114/72
f 95/115/50 97/117/52 98/118/74 96/116/73
f 97/117/52 99/119/53 100/120/75 98/118/74
f 99/119/53 81/99/36 84/102/22 100/120/75
f 84/10/22 83/9/21 86/8/66 88/7/68 90/6/25 92/5/70 94/4/72 96/3/73 98/2/74 100/1/75
f 43/57/38 101/121/11 102/122/76 44/58/39
f 46/61/41 103/123/77 101/124/11 43/62/38
f 48/64/43 104/125/78 103/123/77 46/61/41
f 50/66/45 105/126/79 104/125/78 48/64/43
f 52/68/47 106/127/16 105/126/79 50/66/45
f 54/70/49 107/128/17 106/127/16 52/68/47
f 56/72/51 108/129/18 107/128/17 54/70/49
f 59/75/54 109/130/80 110/131/81 60/76/55
f 44/58/39 102/122/76 109/130/80 59/75/54
f 12/132/12 11/133/11 22/134/9 21/135/10
f 11/133/11 13/136/13 25/137/8 22/134/9
f 13/136/13 14/138/14 27/139/7 25/137/8
f 14/138/14 15/140/15 29/141/6 27/139/7
f 15/140/15 16/142/16 31/143/26 29/141/6
f 16/142/16 17/144/17 33/145/28 31/143/26
f 17/144/17 18/146/18 35/147/30 33/145/28
f 18/146/18 19/148/19 37/149/32 35/147/30
f 19/148/19 20/150/20 39/151/34 37/149/32
f 20/150/20 12/132/12 21/135/10 39/151/34
f 42/133/37 41/132/36 24/135/22 23/134/21
f 41/132/36 58/150/53 40/151/35 24/135/22
f 58/150/53 57/148/52 38/149/33 40/151/35
f 57/148/52 55/146/50 36/147/31 38/149/33
f 55/146/50 53/144/48 34/145/29 36/147/31
f 53/144/48 51/142/46 32/143/27 34/145/29
f 51/142/46 49/140/44 30/141/25 32/143/27
f 49/140/44 47/138/42 28/139/24 30/141/25
f 47/138/42 45/136/40 26/137/23 28/139/24
f 45/136/40 42/133/37 23/134/21 26/137/23
f 102/132/76 101/133/11 62/134/56 61/135/10
f 101/133/11 103/136/77 65/137/58 62/134/56
f 103/136/77 104/138/78 67/139/7 65/137/58
f 104/138/78 105/140/79 69/141/6 67/139/7
f 105/140/79 106/142/16 71/143/60 69/141/6
f 106/142/16 107/144/17 73/145/62 71/143/60
f 107/144/17 108/146/18 75/147/30 73/145/62
f 108/146/18 110/148/81 77/149/32 75/147/30
f 110/148/81 109/150/80 79/151/34 77/149/32
f 109/150/80 102/132/76 61/135/10 79/151/34
f 82/133/64 81/132/36 64/135/57 63/134/21
f 81/132/36 99/150/53 80/151/63 64/135/57
f 99/150/53 97/148/52 78/149/33 80/151/63
f 97/148/52 95/146/50 76/147/31 78/149/33
f 95/146/50 93/144/71 74/145/29 76/147/31
f 93/144/71 91/142/69 72/143/61 74/145/29
f 91/142/69 89/140/44 70/141/25 72/143/61
f 89/140/44 87/138/67 68/139/24 70/141/25
f 87/138/67 85/136/65 66/137/59 68/139/24
f 85/136/65 82/133/64 63/134/21 66/137/59
f 60/76/55 110/131/81 108/129/18 56/72/51
f 57/73/52 60/76/55 56/72/51 55/71/50
# 102 polygons

