# 3ds Max Wavefront OBJ Exporter v0.97b - (c)2007 guruware
# File Created: 11.07.2018 08:36:42
# Created by Neil Brewis.

#
# object metal_post_arm
#
# 110319 reduced y coords by 20 (approx half) due to greater overall scaling to 0.08
# 170919 increase size of arm by approx 1.5 while keeping top at the same position
# 290820 further increase width for webapp rendering
v  -0.3419 16.0 81.1898
v  0.3418 16.0 81.1898
v  0.3418 23.0 85.7753
v  -0.3419 23.0 85.7753
v  -0.3418 16.0 1.9386
v  0.3418 16.0 1.9386
v  0.1297 16.6 2.4980
v  0.1297 23.0 2.4980
v  0.1297 23.0 84.9943
v  0.1297 16.6 80.9538
v  0.3418 30.0 1.9386
v  -0.3418 30.0 1.9386
v  -0.3419 30.0 81.1898
v  0.3418 30.0 81.1898
v  -0.1297 29.4 2.4980
v  -0.1297 23.0 2.4980
v  -0.1297 23.0 84.9943
v  -0.1297 29.4 80.9538
v  0.1297 29.4 2.4980
v  0.1297 29.4 80.9538
v  -0.1297 16.6 2.4980
v  -0.1297 16.6 80.9538
v  0.3418 23.0 1.9386
v  0.3418 23.0 2.4980
v  0.3418 16.6 2.4980
v  0.3418 29.4 2.4980
v  0.3418 29.4 80.9538
v  0.3418 23.0 84.9943
v  0.3418 16.6 80.9538
v  -0.3418 23.0 1.9386
v  -0.3418 23.0 2.4980
v  -0.3418 29.4 2.4980
v  -0.3418 16.6 2.4980
v  -0.3419 16.6 80.9538
v  -0.3419 23.0 84.9943
v  -0.3419 29.4 80.9538
# 36 vertices

vn -0.6292 -0.7161 0.3021
vn 0.6292 -0.7161 0.3021
vn 0.5787 0.0000 0.8155
vn -0.5787 0.0000 0.8155
vn -0.5774 -0.5774 -0.5774
vn 0.5774 -0.5774 -0.5773
vn 0.5773 0.5774 0.5774
vn 0.7071 0.0000 0.7071
vn 0.5787 0.0000 -0.8155
vn 0.6292 0.7161 -0.3021
vn 0.5774 0.5774 -0.5773
vn -0.5774 0.5774 -0.5774
vn -0.6292 0.7161 0.3021
vn 0.6292 0.7161 0.3021
vn -0.5774 -0.5774 0.5773
vn -0.7071 0.0000 0.7071
vn -0.5787 0.0000 -0.8155
vn -0.6292 -0.7161 -0.3021
vn 0.5773 -0.5774 0.5774
vn 0.6292 -0.7161 -0.3021
vn -0.5774 0.5774 0.5773
vn -0.6292 0.7161 -0.3021
vn 0.7071 -0.0000 -0.7071
vn 0.9045 0.3015 0.3015
vn 0.9045 -0.3015 0.3015
vn 0.8059 -0.5455 -0.2301
vn 0.9014 -0.0000 -0.4329
vn 0.8059 0.5455 -0.2301
vn -0.7071 -0.0000 -0.7071
vn -0.9045 -0.3015 0.3015
vn -0.9045 0.3015 0.3015
vn -0.8059 0.5455 -0.2301
vn -0.9014 -0.0000 -0.4329
vn -0.8059 -0.5455 -0.2301
# 34 vertex normals

vt 0.8504 0.8365 0.0000
vt 0.8422 0.8321 0.0000
vt 0.8869 0.7825 0.0000
vt 0.8933 0.7925 0.0000
vt 0.4126 0.8414 0.0000
vt 0.4126 0.8339 0.0000
vt 0.8404 0.8414 0.0000
vt 0.5410 0.0021 0.0000
vt 0.6010 0.0021 0.0000
vt 0.6003 0.6133 0.0000
vt 0.5432 0.5602 0.0000
vt 0.4126 0.7313 0.0000
vt 0.4126 0.7238 0.0000
vt 0.8404 0.7238 0.0000
vt 0.8422 0.7332 0.0000
vt 0.4117 0.0021 0.0000
vt 0.4717 0.0021 0.0000
vt 0.4709 0.6133 0.0000
vt 0.4138 0.5602 0.0000
vt 0.8505 0.7291 0.0000
vt 0.8918 0.7746 0.0000
vt 0.6610 0.0021 0.0000
vt 0.6596 0.5594 0.0000
vt 0.5316 0.0021 0.0000
vt 0.5303 0.5594 0.0000
vt 0.4126 0.7826 0.0000
vt 0.4187 0.7826 0.0000
vt 0.4187 0.8278 0.0000
vt 0.4187 0.7374 0.0000
vt 0.8379 0.7374 0.0000
vt 0.8819 0.7826 0.0000
vt 0.8379 0.8278 0.0000
vt 0.4126 0.6725 0.0000
vt 0.4187 0.6725 0.0000
vt 0.4187 0.7177 0.0000
vt 0.4126 0.6212 0.0000
vt 0.4187 0.6273 0.0000
vt 0.8404 0.6212 0.0000
vt 0.8379 0.6273 0.0000
vt 0.8904 0.6725 0.0000
vt 0.8819 0.6725 0.0000
vt 0.8379 0.7177 0.0000
vt 0.4117 -0.0010 0.0000
vt 0.4717 -0.0010 0.0000
vt 0.5316 -0.0010 0.0000
vt 0.5347 0.0021 0.0000
vt 0.5347 0.5582 0.0000
vt 0.5316 0.5637 0.0000
vt 0.4726 0.6172 0.0000
vt 0.4648 0.6151 0.0000
vt 0.4134 0.5649 0.0000
vt 0.4086 0.5582 0.0000
vt 0.4086 0.0021 0.0000
vt 0.5410 -0.0010 0.0000
vt 0.6010 -0.0010 0.0000
vt 0.6610 -0.0010 0.0000
vt 0.6641 0.0021 0.0000
vt 0.6641 0.5582 0.0000
vt 0.6610 0.5637 0.0000
vt 0.6020 0.6172 0.0000
vt 0.5942 0.6151 0.0000
vt 0.5427 0.5649 0.0000
vt 0.5380 0.5582 0.0000
vt 0.5380 0.0021 0.0000
vt 0.4051 0.7826 0.0000
vt 0.4051 0.7313 0.0000
vt 0.4051 0.8339 0.0000
# 67 texture coords

o metal_post_arm
g metal_post_arm
f 1/1/1 2/2/2 3/3/3 4/4/4
f 5/5/5 6/6/6 2/2/2 1/7/1
f 7/8/7 8/9/8 9/10/9 10/11/10
f 11/12/11 12/13/12 13/14/13 14/15/14
f 15/16/15 16/17/16 17/18/17 18/19/18
f 3/3/3 14/15/14 13/20/13 4/21/4
f 8/9/8 19/22/19 20/23/20 9/10/9
f 16/17/16 21/24/21 22/25/22 17/18/17
f 6/6/6 23/26/23 24/27/8 25/28/24
f 23/26/23 11/12/11 26/29/25 24/27/8
f 11/12/11 14/15/14 27/30/26 26/29/25
f 14/15/14 3/3/3 28/31/27 27/30/26
f 3/3/3 2/2/2 29/32/28 28/31/27
f 2/2/2 6/6/6 25/28/24 29/32/28
f 12/13/12 30/33/29 31/34/16 32/35/30
f 30/33/29 5/36/5 33/37/31 31/34/16
f 5/36/5 1/38/1 34/39/32 33/37/31
f 1/38/1 4/40/4 35/41/33 34/39/32
f 4/40/4 13/14/13 36/42/34 35/41/33
f 13/14/13 12/13/12 32/35/30 36/42/34
f 32/43/30 31/44/16 16/17/16 15/16/15
f 31/44/16 33/45/31 21/24/21 16/17/16
f 33/46/31 34/47/32 22/25/22 21/24/21
f 34/48/32 35/49/33 17/18/17 22/25/22
f 35/50/33 36/51/34 18/19/18 17/18/17
f 36/52/34 32/53/30 15/16/15 18/19/18
f 25/54/24 24/55/8 8/9/8 7/8/7
f 24/55/8 26/56/25 19/22/19 8/9/8
f 26/57/25 27/58/26 20/23/20 19/22/19
f 27/59/26 28/60/27 9/10/9 20/23/20
f 28/61/27 29/62/28 10/11/10 9/10/9
f 29/63/28 25/64/24 7/8/7 10/11/10
f 11/12/11 23/26/23 30/65/29 12/66/12
f 5/67/5 30/65/29 23/26/23 6/6/6
# 34 polygons

